<svg xmlns="http://www.w3.org/2000/svg" width="35" height="35" viewBox="0 0 35 35"><g><g><g><path fill="#093b6d" d="M17.432.576C8.015.576.385 8.206.385 17.624c0 9.417 7.63 17.048 17.047 17.048 9.418 0 17.048-7.63 17.048-17.048C34.48 8.207 26.85.576 17.432.576zm0 3.443c3.631 0 7.049 1.417 9.623 3.983a13.549 13.549 0 0 1 3.983 9.622c0 3.63-1.418 7.048-3.983 9.622a13.549 13.549 0 0 1-9.623 3.983c-3.63 0-7.048-1.418-9.622-3.983a13.549 13.549 0 0 1-3.983-9.622c0-3.63 1.418-7.049 3.983-9.622a13.549 13.549 0 0 1 9.622-3.984"/></g><g><path fill="#093b6d" d="M25.956 23.763l-2.385 2.385-6.139-6.14-6.138 6.14-2.385-2.385 6.138-6.14-6.138-6.138L11.294 9.1l6.138 6.139 6.14-6.139 2.384 2.385-6.139 6.139z"/></g></g></g></svg>