<svg xmlns="http://www.w3.org/2000/svg" width="28" height="31" viewBox="0 0 28 31"><g><g><path fill="#0cbcab" d="M23.262 21.808c-1.128 0-2.18.375-2.933 1.124L9.574 16.715c.075-.375.15-.675.15-1.05 0-.374-.075-.674-.15-1.048L20.18 8.475a4.527 4.527 0 0 0 3.083 1.198c2.482 0 4.513-2.022 4.513-4.494S25.745.685 23.262.685c-2.481 0-4.512 2.022-4.512 4.494 0 .374.075.674.15 1.049L8.296 12.37a4.527 4.527 0 0 0-3.084-1.198c-2.481 0-4.437 2.022-4.437 4.494s2.03 4.494 4.512 4.494c1.204 0 2.257-.449 3.084-1.198l10.68 6.217c-.076.3-.15.6-.15.974 0 2.397 1.955 4.344 4.361 4.344 2.407 0 4.362-1.947 4.362-4.344 0-2.397-1.955-4.345-4.362-4.345z"/></g></g></svg>