<svg xmlns="http://www.w3.org/2000/svg" width="67.314" height="67.306"
                                                    viewBox="0 0 67.314 67.306">
                                                    <g id="Group_114" data-name="Group 114"
                                                        transform="translate(-295.333 631.162)">
                                                        <path id="Path_54" data-name="Path 54"
                                                            d="M295.333-571.021a7.9,7.9,0,0,1,2.76-4.117c4.25-3.78,8.455-7.61,12.678-11.42q2.777-2.506,5.554-5.013a1.216,1.216,0,0,1,1.059-.41.981.981,0,0,1,.815.678,1.108,1.108,0,0,1-.4,1.231c-1.7,1.541-3.4,3.09-5.105,4.629q-6.455,5.827-12.915,11.648c-.374.337-.762.659-1.12,1.011a3.782,3.782,0,0,0-1.023,4.26,3.715,3.715,0,0,0,3.5,2.542,3.8,3.8,0,0,0,3.1-1.325q4.951-5.477,9.894-10.962,5.891-6.53,11.793-13.048c.421-.462.381-.7-.041-1.089-.756-.7-1.473-1.435-2.185-2.177-.311-.325-.553-.335-.875-.016-.434.431-.9.834-1.363,1.232a1.076,1.076,0,0,1-1.532.023,1.017,1.017,0,0,1,.114-1.562c.468-.459.964-.891,1.456-1.325a.575.575,0,0,0,.21-.687,1.88,1.88,0,0,1,.546-1.978c.5-.524,1-1.041,1.531-1.531a1.849,1.849,0,0,1,2.5-.295.5.5,0,0,0,.726-.106c.638-.661,1.28-1.321,1.952-1.946.353-.329.288-.54-.024-.847-1.482-1.457-2.928-2.951-4.422-4.4a1.9,1.9,0,0,1-.488-2.571c.162-.242.051-.4-.116-.569-.4-.4-.812-.8-1.206-1.207a.752.752,0,0,0-.779-.2,2.564,2.564,0,0,1-2.452-.77c-.2-.2-.4-.4-.6-.6a2.669,2.669,0,0,1-.026-4.194c.57-.575,1.144-1.145,1.717-1.718q5.013-5.013,10.022-10.029a6.33,6.33,0,0,1,1.643-1.284h1.576a5.958,5.958,0,0,1,2.3,2,2.183,2.183,0,0,1,.425,1.925.883.883,0,0,0,.309.987,4.809,4.809,0,0,1,.556.557c.442.528.854.884,1.619.419a1.375,1.375,0,0,1,1.634.342c.757.7,1.48,1.429,2.189,2.173a.984.984,0,0,1,.043,1.417,1.026,1.026,0,0,1-1.475.076,13.013,13.013,0,0,1-1.355-1.334c-.386-.445-.644-.468-1.081-.022-2.174,2.22-4.384,4.4-6.581,6.6-1.981,1.981-3.953,3.97-5.949,5.935-.366.36-.447.573-.033.984q7.079,7.033,14.112,14.111c.386.388.589.328.936-.02q6.3-6.327,12.628-12.625c.369-.367.36-.576-.005-.939q-4.338-4.3-8.642-8.627c-.155-.155-.311-.308-.464-.464-.654-.665-.749-1.293-.269-1.768.5-.5,1.062-.416,1.756.278q4.784,4.779,9.562,9.563a1.762,1.762,0,0,1,.447,2.458.452.452,0,0,0,.114.624,9.417,9.417,0,0,1,.785.792,1.359,1.359,0,0,0,1.528.555c1.409-.348,4.227,2.187,3.677,4.08a3.189,3.189,0,0,1-.806,1.405q-6.176,6.172-12.352,12.344a2.636,2.636,0,0,1-3.963-.022c-.3-.291-.6-.578-.873-.89a2.315,2.315,0,0,1-.638-2.055,1.136,1.136,0,0,0-.43-1.262,3.14,3.14,0,0,1-.418-.417c-.44-.524-.842-.868-1.624-.44-.682.373-1.351-.011-1.883-.543-1.5-1.5-3.014-2.99-4.495-4.51-.374-.384-.612-.432-.99-.015-.6.664-1.253,1.284-1.9,1.908a.465.465,0,0,0-.092.674,1.882,1.882,0,0,1-.311,2.558c-.493.527-1.007,1.036-1.535,1.528a1.823,1.823,0,0,1-1.923.519c-.453-.159-.643.135-.871.388q-3.74,4.14-7.475,8.285l-11.783,13.062c-.791.877-1.574,1.762-2.375,2.63a5.834,5.834,0,0,1-6.134,1.846A5.823,5.823,0,0,1,295.4-568.6a1.724,1.724,0,0,0-.068-.184Zm25.908-43.65a.869.869,0,0,0,.786-.357q6-6,12.006-12c.062-.062.123-.124.182-.188a.615.615,0,0,0,.009-.931c-.162-.177-.332-.347-.5-.515-.6-.584-.762-.591-1.343-.01q-5.96,5.953-11.915,11.911c-.269.269-.6.561-.371.955A2.861,2.861,0,0,0,321.241-614.671Zm39.27,13c-.1-.443-.49-.691-.792-.994-.511-.513-.738-.509-1.257.01q-6.007,6-12.006,12c-.556.556-.55.745-.006,1.3.137.141.28.276.417.417a.73.73,0,0,0,1.187-.016q6.069-6.076,12.142-12.147A.879.879,0,0,0,360.511-601.668Zm-23.9-21.776a2.818,2.818,0,0,0-.213-.276c-.242-.252-.491-.5-.74-.744-.7-.689-.524-.686-1.232.021q-4.6,4.588-9.185,9.183c-1.254,1.254-1.244,1.244.033,2.493.325.318.528.331.853,0q5.089-5.116,10.2-10.211A.692.692,0,0,0,336.611-623.443Zm19.77,19.742c-.066-.077-.145-.179-.234-.271-.229-.235-.463-.465-.695-.7-.666-.665-.666-.664-1.352.022l-6.308,6.308c-1.206,1.206-2.4,2.421-3.623,3.612-.326.318-.351.548,0,.851a9.481,9.481,0,0,1,.927.927c.249.284.425.263.686,0q5.161-5.183,10.338-10.349A.621.621,0,0,0,356.381-603.7Zm-26.213,9.83c-.034-.165-.2-.285-.334-.421q-1.779-1.784-3.562-3.564c-1.1-1.1-1.092-1.092-2.137.071-.254.282-.224.457.026.7,1.456,1.443,2.9,2.9,4.354,4.343a.736.736,0,0,0,.32.2A4.053,4.053,0,0,0,330.168-593.871Zm2.871-5.574a1.759,1.759,0,0,0-.161-.228c-.6-.605-1.207-1.2-1.808-1.81-.242-.244-.383-.046-.537.108-.681.68-1.35,1.372-2.046,2.036-.305.291-.245.494.028.753.508.482,1,.976,1.484,1.485.268.284.471.3.753.01.665-.7,1.357-1.364,2.036-2.047C332.876-599.229,332.95-599.335,333.039-599.445Z"
                                                            fill="#093b6d" />
                                                        <path id="Path_55" data-name="Path 55"
                                                            d="M479.183-327.593H461.85c-1.375,0-1.844-.468-1.877-1.842a4,4,0,0,1,1.505-3.656,2.62,2.62,0,0,1,1.372-.588c.637-.03.771-.337.825-.9a6.815,6.815,0,0,1,2.865-5.1.448.448,0,0,0,.2-.645c-1-2.32.286-4.263,2.826-4.268q8.043-.016,16.085,0c1.094,0,2.189-.011,3.283,0a2.868,2.868,0,0,1,2.756,4.239.486.486,0,0,0,.2.7,6.631,6.631,0,0,1,2.817,5.175.714.714,0,0,0,.741.786,3.405,3.405,0,0,1,2.916,3.3c.01.394.007.788,0,1.182-.01,1.148-.481,1.612-1.654,1.614q-3.184.007-6.368,0Zm0-2.062h4.66c3.938,0,7.875-.009,11.813.009.588,0,.735-.213.615-.747a1.5,1.5,0,0,0-1.59-1.271c-1.159-.014-2.319.008-3.478-.014a1.01,1.01,0,0,1-1.055-.955.991.991,0,0,1,.894-1.1,3.8,3.8,0,0,1,.913-.065c.561.034.735-.2.663-.744a4.815,4.815,0,0,0-4.806-4.338q-8.6-.038-17.194,0a4.773,4.773,0,0,0-4.767,3.992c-.186.944-.076,1.083.872,1.083q9.45,0,18.9,0a6.475,6.475,0,0,1,1.045.064.993.993,0,0,1,.928,1.073,1.036,1.036,0,0,1-1.09.992c-.218.012-.437,0-.656,0H464.516c-.328,0-.658-.016-.984.011a1.43,1.43,0,0,0-1.28.882c-.353.8-.15,1.119.717,1.119Zm.033-12.791h-3.738q-3.017,0-6.034,0c-.485,0-.915.111-.942.674-.028.588.4.766.909.811.109.009.219.007.328.007q9.477,0,18.955,0a2.787,2.787,0,0,0,.648-.066.651.651,0,0,0,.547-.771.663.663,0,0,0-.638-.634,5.819,5.819,0,0,0-.655-.017Z"
                                                            transform="translate(-135.756 -236.291)" fill="#093b6d" />
                                                    </g>
                                                </svg>