<svg xmlns="http://www.w3.org/2000/svg" width="66.658" height="66.717"
                                                    viewBox="0 0 66.658 66.717">
                                                    <g id="Group_113" data-name="Group 113"
                                                        transform="translate(68.708 752.59)">
                                                        <path id="Path_47" data-name="Path 47"
                                                            d="M-68.708-659.836a9.046,9.046,0,0,1,3.155-5.593c1.192-1.1,2.32-2.281,3.453-3.448.356-.366.6-.357.953,0q3.571,3.606,7.178,7.177c.361.357.3.579-.031.9-1.21,1.182-2.4,2.384-3.593,3.584-.744.749-.742,1.168.008,1.925.947.955,1.906,1.9,2.85,2.855.289.293.5.426.652-.107,1.051-3.58,3.548-5.388,7.154-5.9,1.779-.252,3.543-.614,5.311-.943.238-.044.586.007.673-.291.105-.359-.259-.456-.478-.607a10.776,10.776,0,0,1-4.521-6.381.871.871,0,0,0-.607-.672,4.291,4.291,0,0,1-2.939-4.3c0-2.581-.013-5.162,0-7.743A14.086,14.086,0,0,1-38.05-692.783a14.034,14.034,0,0,1,16.411,11.414,11.29,11.29,0,0,1,.209,2.132c-.005,4.338,0,8.675,0,13.013a3.21,3.21,0,0,1-3.441,3.406,3.192,3.192,0,0,0-3.134,1.281,5.653,5.653,0,0,1-1.606,1.31c-.2.131-.446.25-.368.546.071.271.352.227.547.264,2,.375,4,.756,6.009,1.1A7.661,7.661,0,0,1-16.98-652.9q1.076,3.206,2.144,6.414c.291.871.289.873-.664.873H-37.438a5.239,5.239,0,0,0,1.056,1.164c.284.282.356.486.019.791-1.817,1.644-3.562,3.372-5.44,4.944a7.521,7.521,0,0,1-10.271-.631c-3.264-3.238-6.505-6.5-9.756-9.752-1.242-1.242-2.446-2.526-3.736-3.716a8.986,8.986,0,0,1-3.142-5.6ZM-28.9-647.9h10.471c.345,0,.752.082.541-.523-.5-1.432-.926-2.891-1.478-4.3a4.913,4.913,0,0,0-3.757-3.178c-2.376-.481-4.771-.871-7.152-1.329a.9.9,0,0,0-.914.3c-1.263,1.282-2.551,2.539-3.805,3.828-.35.36-.575.391-.941.012-1.19-1.232-2.44-2.406-3.612-3.653a1.368,1.368,0,0,0-1.424-.447c-1.956.38-3.91.777-5.88,1.065a5.72,5.72,0,0,0-5.145,4.539,6.665,6.665,0,0,1-.306.925.7.7,0,0,0,.2.869c.532.51,1.044,1.04,1.567,1.561.855.851,1.3.855,2.2.034,1.25-1.139,2.515-2.261,3.747-3.418.4-.377.66-.4,1.057.023,1.043,1.1,2.148,2.145,3.2,3.235a1.449,1.449,0,0,0,1.146.467C-35.747-647.9-32.321-647.9-28.9-647.9ZM-47.2-678.234c0,.992.007,1.708,0,2.423-.005.391.17.433.49.309a.538.538,0,0,0,.389-.6c-.07-.689.286-.832.9-.818a11.674,11.674,0,0,0,9-3.8c.925-.96.95-.955,1.892,0a11.859,11.859,0,0,0,8.552,3.8,3.63,3.63,0,0,1,1.032.055c.484.156.2.635.284.963.1.379.435.4.715.453.257.046.231-.206.229-.368a33.253,33.253,0,0,0-.159-5.126,11.79,11.79,0,0,0-9.227-9.548,11.744,11.744,0,0,0-12.269,5.209A11.539,11.539,0,0,0-47.2-678.234Zm17.08,15.445c-1.4,0-2.666.01-3.935,0-1.657-.016-1.461.24-1.506-1.484-.017-.631.208-.823.826-.814,2.016.03,4.033,0,6.05.02a.836.836,0,0,0,.907-.551,8.713,8.713,0,0,0,.814-3.389c.006-1.648-.011-3.3.015-4.944.007-.48-.144-.715-.632-.775a13.681,13.681,0,0,1-7.478-3.353.527.527,0,0,0-.828.006,13.648,13.648,0,0,1-7.415,3.34c-.507.065-.68.3-.671.814.029,1.561,0,3.123.014,4.684a8.482,8.482,0,0,0,12.151,7.622A4.643,4.643,0,0,0-30.124-662.79Zm-36.242,3.753a5.131,5.131,0,0,0,1.72,3.9q1.533,1.548,3.08,3.081c3.729,3.719,7.421,7.477,11.2,11.142a5.254,5.254,0,0,0,7.727-.09c.3-.288.27-.465,0-.735q-2.06-2.032-4.093-4.091a.509.509,0,0,0-.773-.07,3.219,3.219,0,0,1-4.369-.42q-3.761-3.734-7.494-7.495a3.254,3.254,0,0,1-.43-4.374c.205-.31.222-.5-.056-.768q-2.043-2-4.046-4.046c-.339-.347-.548-.262-.847.036A5.124,5.124,0,0,0-66.366-659.036ZM-44.2-648.814c-.239.208-.5.469-.793.68-.384.275-.362.489-.031.811,1.207,1.176,2.381,2.386,3.585,3.567,1.021,1,.626.975,1.781.024.306-.252.315-.447.027-.731-1.385-1.365-2.755-2.747-4.131-4.12A.548.548,0,0,0-44.2-648.814Zm-17.42-17.172a2.912,2.912,0,0,0-.907.851c-.2.28.128.416.277.566,1.325,1.339,2.672,2.655,3.984,4.006.412.425.631.147.883-.132s.682-.47.21-.934c-1.391-1.364-2.76-2.751-4.14-4.126A2.7,2.7,0,0,0-61.619-665.986Zm23.266,7.246q1.283,1.276,2.566,2.553c.167.166.345.288.554.076.884-.893,1.765-1.79,2.751-2.793a12.519,12.519,0,0,1-2.952.415C-36.409-658.482-37.357-658.647-38.353-658.74Zm14.63-7.9c0-.195,0-.39,0-.585,0-.129-.024-.317-.2-.252-.367.138-.848.116-1.006.6-.148.452-.268.914-.421,1.364-.111.325,0,.418.322.437C-24.115-665.02-23.722-665.479-23.723-666.638Zm-.924-3.217a1.85,1.85,0,0,0,0-3.187Zm-21.677.06c0-1.02,0-1.9,0-2.775,0-.122.041-.291-.1-.343-.179-.064-.26.116-.352.224A2.056,2.056,0,0,0-46.323-669.8Z"
                                                            transform="translate(0 -48.898)" fill="#093b6d" />
                                                        <path id="Path_48" data-name="Path 48"
                                                            d="M201.129-752.59a3.587,3.587,0,0,1,2.5,3.821c-.038,2.537-.005,5.075-.011,7.613-.005,2.305-1.394,3.782-3.683,3.662a7.3,7.3,0,0,0-4.723,1.358c-2.471,1.684-5.057,3.2-7.6,4.778-.17.106-.351.358-.563.2-.163-.122-.03-.372,0-.554q.409-2.468.847-4.931c.144-.819.152-.818-.7-.819-.651,0-1.3.013-1.952,0a3.285,3.285,0,0,1-3.275-3.282c-.023-2.884-.029-5.77,0-8.654a3.4,3.4,0,0,1,2.369-3.186Zm-11.064,16.955c.287-.158.458-.241.618-.341,1.067-.664,2.191-1.255,3.186-2.015a8.065,8.065,0,0,1,6.091-1.782c.952.114,1.3-.308,1.306-1.259q.013-4.032,0-8.065c0-.953-.307-1.25-1.248-1.251q-7.219-.005-14.438,0c-1.006,0-1.325.316-1.327,1.32q-.009,3.967,0,7.935c0,.961.38,1.337,1.34,1.342,1.344.007,2.688,0,4.032,0,1.154,0,1.147,0,.941,1.141C190.394-737.661,190.244-736.707,190.064-735.635Z"
                                                            transform="translate(-205.68 0)" fill="#093b6d" />
                                                        <path id="Path_49" data-name="Path 49"
                                                            d="M-68.708-714.148c.477-.3.966-.581,1.426-.9.372-.26.6-.207.825.191.414.737.861,1.455,1.3,2.176.1.158.138.369.4.446.189-.642.348-1.289.569-1.915,4.119-11.663,12.262-18.611,24.454-20.718a28.23,28.23,0,0,1,12.416.787c.86.237.86.239.587,1.106-.411,1.31-.411,1.31-1.709.97a27.861,27.861,0,0,0-33.783,19.247,1.428,1.428,0,0,0-.1.787c.735-.441,1.443-.842,2.125-1.283.392-.254.62-.224.882.2.889,1.423.9,1.414-.513,2.266-1.486.893-2.984,1.768-4.455,2.687-.472.3-.706.2-.97-.255-1.008-1.72-2.044-3.425-3.075-5.132-.111-.183-.253-.347-.38-.52Z"
                                                            transform="translate(0 -14.237)" fill="#093b6d" />
                                                        <path id="Path_50" data-name="Path 50"
                                                            d="M242.846-636.14c-.522.868-1.013,1.655-1.471,2.46-.222.39-.434.439-.827.207-1.465-.865-1.471-.852-.608-2.288.882-1.468,1.774-2.93,2.635-4.411.261-.449.491-.555.966-.262q2.543,1.575,5.131,3.078c.524.3.644.564.3,1.111-.8,1.271-.777,1.287-2.073.513l-1.694-1.009c.264,1.053.517,1.935.7,2.83a29.922,29.922,0,0,1-5.468,24.839c-.549.748-.565.736-1.274.171-1.067-.849-1.061-.845-.261-1.945a27.847,27.847,0,0,0,5.363-14.764,28.357,28.357,0,0,0-.952-9.26c-.089-.335-.2-.664-.3-.994A2.04,2.04,0,0,0,242.846-636.14Z"
                                                            transform="translate(-251.943 -91.897)" fill="#093b6d" />
                                                        <path id="Path_51" data-name="Path 51"
                                                            d="M212.441-726.652c-1.906,0-3.813-.017-5.719.01-.6.008-.859-.15-.84-.8.052-1.741-.174-1.486,1.485-1.492,3.575-.013,7.149,0,10.724,0,.856,0,.867.01.868.875,0,1.589.11,1.4-1.383,1.408C215.864-726.646,214.153-726.651,212.441-726.652Z"
                                                            transform="translate(-225.317 -19.404)" fill="#093b6d" />
                                                        <path id="Path_52" data-name="Path 52"
                                                            d="M210.248-702.744c-1.212,0-2.425-.013-3.637.006-.488.008-.707-.15-.7-.671.036-1.924-.2-1.6,1.549-1.617,2.121-.019,4.244.016,6.365-.017.635-.01.893.154.875.831-.044,1.686.108,1.452-1.466,1.466C212.24-702.736,211.244-702.744,210.248-702.744Z"
                                                            transform="translate(-225.344 -39.015)" fill="#093b6d" />
                                                        <path id="Path_53" data-name="Path 53"
                                                            d="M266.684-704.988c.173,0,.346,0,.519,0a.586.586,0,0,1,.257.016c.713.4.256,1.077.357,1.621.057.3,0,.632-.44.638-.476.007-.952,0-1.428,0a.145.145,0,0,1-.064-.007c-.772-.4-.287-1.109-.392-1.67-.068-.363.094-.634.542-.6C266.25-704.975,266.468-704.988,266.684-704.988Z"
                                                            transform="translate(-274.187 -39.055)" fill="#093b6d" />
                                                    </g>
                                                </svg>