<svg xmlns="http://www.w3.org/2000/svg" width="392.719" height="980.391" viewBox="0 0 392.719 980.391">
  <g id="Group_63" data-name="Group 63" opacity="0.31" style="mix-blend-mode: overlay;isolation: isolate">
    <path id="Path_21" data-name="Path 21" d="M260.31,357.755v-.032q.136-1.84.258-3.685t.231-3.7q.109-1.851.208-3.707t.187-3.718l.089-1.752q.034-.627.066-1.255t.063-1.258q.03-.629.057-1.26t.051-1.262q.107-2.947.187-5.747t.133-5.479q.053-2.679.08-5.25t.026-5.058V130.771H0V0H392.719l-.856,348.839q-.551,11.5-1.478,23.044t-2.226,23.077q-1.3,11.536-2.966,23.047t-3.7,22.955l-.436,2.388q-.343,1.9-.7,3.8t-.716,3.8q-.363,1.9-.736,3.792t-.756,3.786L373.168,483.1,259.395,369.316Z" fill="#ced8e2"/>
    <path id="Path_22" data-name="Path 22" d="M0,347.141v153.51l.227.132L33.45,481.178q.491-.295.976-.593t.968-.6l.962-.6.96-.6.661-.418.661-.414.661-.41.661-.407q2-1.211,4-2.426t3.986-2.438q1.988-1.223,3.965-2.458t3.938-2.486q.991-.64,1.97-1.281t1.95-1.283q.971-.642,1.937-1.285l1.933-1.286,1.809-1.2q1.713-1.133,3.423-2.276t3.415-2.3q1.7-1.154,3.4-2.32t3.386-2.346q1.041-.721,2.085-1.454t2.09-1.474q1.046-.741,2.092-1.488t2.091-1.5q2.018-1.447,4.024-2.907t4-2.934q1.994-1.474,3.977-2.961t3.955-2.987l1.82-1.374.845-.64.844-.641q.421-.321.84-.642t.835-.645q5.373-4.158,10.626-8.374t10.362-8.47q5.109-4.254,10.062-8.534t9.725-8.566q.48-.43.956-.866t.951-.876q.474-.44.947-.881l.946-.882,1.829-1.706q5.177-4.748,10.281-9.613t10.11-9.824q5.006-4.958,9.9-10t9.657-10.13l.446-.484q2.871-3.074,5.732-6.211t5.7-6.323q2.838-3.186,5.648-6.412t5.578-6.478l1.7-2.037q2.466-2.932,4.895-5.879t4.812-5.9q2.383-2.952,4.718-5.9t4.612-5.894l.863-1.1.511-.648.511-.652q.255-.327.509-.656t.506-.659q2.42-3.166,4.81-6.362t4.736-6.4q2.346-3.207,4.642-6.417t4.527-6.4l2.956-4.311q1.912-2.783,3.811-5.6t3.779-5.668q1.88-2.847,3.736-5.716t3.683-5.747l3.488-5.467q2.05-3.291,4.069-6.607t4-6.646q1.98-3.329,3.919-6.667t3.829-6.67l2.8-5.117q1.581-2.839,3.159-5.74t3.144-5.848q1.566-2.947,3.117-5.931t3.078-5.991l.749-1.459.589-1.146q.294-.574.588-1.148t.584-1.15q.291-.575.579-1.151,1.834-3.688,3.568-7.266T323,162.449q1.652-3.5,3.231-6.937t3.1-6.845l1.943-4.51q1.371-3.131,2.731-6.317t2.7-6.412q1.34-3.226,2.656-6.482t2.6-6.525l5.515-14.234-6.083-6.434L243.646,0l-6.435,21.7q-.426,1.439-.859,2.875t-.874,2.869q-.441,1.433-.889,2.864t-.9,2.859q-.242.753-.49,1.51t-.5,1.517q-.252.76-.508,1.525l-.511,1.532-.919,2.719q-.551,1.631-1.093,3.234t-1.086,3.185q-.544,1.582-1.093,3.148t-1.115,3.122q-.387,1.073-.783,2.14t-.8,2.13q-.4,1.063-.8,2.125t-.8,2.124q-.562,1.485-1.107,2.912T221,68.9q-.538,1.389-1.073,2.752t-1.075,2.72q-.444,1.1-.892,2.2t-.9,2.209q-.453,1.106-.912,2.214t-.924,2.217q-.583,1.393-1.179,2.785t-1.2,2.781q-.6,1.389-1.214,2.777T210.4,94.332l-1.392,3.156q-.274.615-.546,1.231t-.546,1.232q-.274.616-.55,1.23t-.557,1.226q-1.031,2.225-2.076,4.45t-2.11,4.447q-1.064,2.222-2.149,4.438t-2.193,4.423q-.227.458-.458.912t-.465.9q-.234.45-.47.9t-.474.9l-1.374,2.635q-.8,1.556-1.61,3.109t-1.623,3.1q-.816,1.549-1.641,3.1T188.5,138.8q-.508.931-1.023,1.859t-1.036,1.854q-.521.927-1.046,1.853t-1.055,1.853q-.8,1.414-1.6,2.822t-1.609,2.808q-.807,1.4-1.622,2.8t-1.635,2.784l-1.058,1.782q-.529.89-1.059,1.777t-1.064,1.772q-.534.885-1.074,1.766-.949,1.553-1.906,3.094T169.8,170.7q-.966,1.532-1.939,3.058t-1.954,3.046l-1.45,2.274q-.253.4-.506.8t-.51.794q-.256.4-.513.79t-.517.785q-1.411,2.146-2.856,4.3t-2.918,4.313q-1.473,2.157-2.971,4.31t-3.016,4.292l-1.174,1.6q-2.587,3.621-5.279,7.268t-5.478,7.3q-2.785,3.655-5.657,7.309t-5.817,7.289q-.277.348-.557.691t-.563.685l-.566.681-.568.681-1.241,1.488q-2.8,3.39-5.624,6.711t-5.657,6.559q-2.834,3.238-5.672,6.387t-5.666,6.194q-.483.522-.97,1.045t-.976,1.044q-.489.521-.981,1.042t-.986,1.039q-2.573,2.726-5.159,5.4t-5.173,5.282q-2.587,2.609-5.169,5.149t-5.148,5q-.437.423-.874.839t-.874.829q-.437.412-.874.822l-.875.818-.72.673q-3.12,2.931-6.1,5.67t-5.855,5.311q-2.873,2.572-5.652,4.989t-5.494,4.706l-1.81,1.507q-2.654,2.239-5.361,4.466t-5.451,4.431q-2.745,2.2-5.522,4.38t-5.574,4.311l-2.416,1.885q-1.311,1-2.647,1.991t-2.7,2q-1.364,1-2.758,2.01t-2.823,2.029q-1.421,1.016-2.878,2.043t-2.952,2.068q-1.5,1.04-3.029,2.094T.218,347.293l-.056-.036-.054-.037-.053-.038L0,347.141" transform="translate(0.009 479.607)" fill="#ced8e2"/>
  </g>
</svg>
