<svg xmlns="http://www.w3.org/2000/svg" width="51.924" height="59.342"
                                                    viewBox="0 0 51.924 59.342">
                                                    <path id="Path_92" data-name="Path 92"
                                                        d="M4235.356,918.416a11.127,11.127,0,1,0-11.127-11.127A11.14,11.14,0,0,0,4235.356,918.416Zm0-19.781a8.654,8.654,0,1,1-8.654,8.654A8.663,8.663,0,0,1,4235.356,898.635Zm-1.236,3.709a1.236,1.236,0,0,1,1.236-1.236,6.188,6.188,0,0,1,6.181,6.181,1.236,1.236,0,0,1-2.473,0,3.713,3.713,0,0,0-3.708-3.709A1.236,1.236,0,0,1,4234.12,902.344Zm-4.945,4.945a1.236,1.236,0,1,1,2.472,0,3.713,3.713,0,0,0,3.709,3.709,1.236,1.236,0,0,1,0,2.473A6.189,6.189,0,0,1,4229.174,907.289Zm-22.253-8.654a1.236,1.236,0,0,1,1.236-1.236h14.835a1.236,1.236,0,1,1,0,2.473h-14.835A1.236,1.236,0,0,1,4206.921,898.635Zm0,8.654a1.237,1.237,0,0,1,1.236-1.236h12.363a1.236,1.236,0,0,1,0,2.473h-12.363A1.236,1.236,0,0,1,4206.921,907.289Zm0,8.654a1.236,1.236,0,0,1,1.236-1.236h14.835a1.236,1.236,0,1,1,0,2.473h-14.835A1.236,1.236,0,0,1,4206.921,915.943Zm1.236,9.89a1.236,1.236,0,1,1,0-2.473h37.089a1.236,1.236,0,1,1,0,2.473Zm44.506,7.418h-1.236V887.509a1.237,1.237,0,0,0-1.9-1.045l-7.175,4.529-7.176-4.529a1.236,1.236,0,0,0-1.32,0l-7.169,4.528-7.164-4.527a1.236,1.236,0,0,0-1.32,0l-7.167,4.527-7.166-4.527a1.236,1.236,0,0,0-1.9,1.045v51.924a6.188,6.188,0,0,0,6.181,6.181h39.561a6.189,6.189,0,0,0,6.182-6.181v-4.945A1.236,1.236,0,0,0,4252.664,933.251Zm-48.215,6.182v-49.68l5.929,3.746a1.236,1.236,0,0,0,1.32,0l7.167-4.527,7.164,4.527a1.237,1.237,0,0,0,1.321,0l7.169-4.529,7.176,4.529a1.235,1.235,0,0,0,1.32,0l5.939-3.749v43.5H4213.1a1.236,1.236,0,0,0-1.236,1.236v4.945a3.709,3.709,0,1,1-7.417,0Zm46.979,0a3.713,3.713,0,0,1-3.709,3.709h-34.647a6.121,6.121,0,0,0,1.268-3.709v-3.709h37.089Z"
                                                        transform="translate(-4201.976 -886.272)" fill="#093b6d" />
                                                </svg>