<svg xmlns="http://www.w3.org/2000/svg" width="76.857" height="76.925" viewBox="0 0 76.857 76.925">
  <g id="icon_360" data-name="icon 360" transform="translate(0 0)">
    <path id="Path_47" data-name="Path 47" d="M-68.708-654.763a10.431,10.431,0,0,1,3.637-6.448c1.375-1.274,2.675-2.63,3.981-3.975.41-.423.689-.411,1.1,0q4.118,4.158,8.276,8.275c.416.412.342.668-.036,1.037-1.4,1.363-2.769,2.749-4.143,4.132-.858.864-.856,1.347.01,2.22,1.091,1.1,2.2,2.188,3.286,3.292.333.338.572.492.752-.124,1.212-4.128,4.091-6.212,8.248-6.8,2.052-.29,4.085-.708,6.123-1.088.275-.051.676.008.776-.336.121-.414-.3-.526-.551-.7a12.425,12.425,0,0,1-5.213-7.357,1,1,0,0,0-.7-.774,4.947,4.947,0,0,1-3.389-4.958c0-2.976-.015-5.952,0-8.928A16.242,16.242,0,0,1-33.359-692.75a16.182,16.182,0,0,1,18.922,13.161,13.017,13.017,0,0,1,.24,2.458c-.006,5,0,10,0,15a3.7,3.7,0,0,1-3.967,3.927,3.68,3.68,0,0,0-3.614,1.477,6.516,6.516,0,0,1-1.852,1.51c-.227.152-.514.289-.425.63.082.312.405.262.631.3,2.307.432,4.614.871,6.928,1.264a8.833,8.833,0,0,1,7.434,6.256q1.241,3.7,2.473,7.4c.335,1,.333,1.006-.765,1.006h-25.3a6.038,6.038,0,0,0,1.218,1.342c.328.325.41.56.022.912-2.1,1.9-4.107,3.888-6.272,5.7a8.671,8.671,0,0,1-11.842-.727c-3.764-3.734-7.5-7.495-11.249-11.244-1.432-1.432-2.821-2.912-4.308-4.285a10.361,10.361,0,0,1-3.623-6.452Zm45.9,13.768h12.073c.4,0,.867.094.624-.6-.574-1.652-1.068-3.334-1.7-4.96a5.664,5.664,0,0,0-4.332-3.664c-2.74-.555-5.5-1-8.247-1.532a1.036,1.036,0,0,0-1.053.344c-1.456,1.478-2.941,2.927-4.388,4.414-.4.415-.663.45-1.085.014-1.372-1.42-2.813-2.773-4.165-4.212a1.577,1.577,0,0,0-1.642-.515c-2.255.438-4.508.9-6.78,1.228a6.6,6.6,0,0,0-5.933,5.234,7.68,7.68,0,0,1-.353,1.067.807.807,0,0,0,.236,1c.614.588,1.2,1.2,1.806,1.8.986.981,1.5.986,2.538.04,1.441-1.313,2.9-2.607,4.321-3.941.463-.434.761-.457,1.219.026,1.2,1.27,2.476,2.473,3.693,3.73a1.671,1.671,0,0,0,1.321.539C-30.7-641-26.754-640.994-22.8-640.994Zm-21.109-34.981c0,1.144.008,1.969,0,2.793-.006.451.2.5.565.357a.62.62,0,0,0,.448-.691c-.08-.794.33-.96,1.038-.944a13.46,13.46,0,0,0,10.375-4.379c1.066-1.107,1.1-1.1,2.181,0a13.673,13.673,0,0,0,9.861,4.384,4.182,4.182,0,0,1,1.19.064c.559.18.229.732.328,1.111.114.437.5.464.825.522.3.054.267-.237.264-.425a38.34,38.34,0,0,0-.184-5.91A13.593,13.593,0,0,0-27.664-690.1a13.541,13.541,0,0,0-14.147,6.006A13.3,13.3,0,0,0-43.914-675.975Zm19.693,17.808c-1.61,0-3.073.011-4.537,0-1.911-.018-1.685.276-1.737-1.711-.019-.727.24-.95.952-.939,2.325.035,4.651,0,6.976.023a.964.964,0,0,0,1.046-.635,10.046,10.046,0,0,0,.938-3.908c.007-1.9-.012-3.8.017-5.7.008-.554-.166-.824-.729-.893a15.774,15.774,0,0,1-8.622-3.866.608.608,0,0,0-.955.007,15.737,15.737,0,0,1-8.55,3.851c-.584.074-.785.348-.774.939.033,1.8,0,3.6.016,5.4a9.779,9.779,0,0,0,14.01,8.788A5.352,5.352,0,0,0-24.221-658.168Zm-41.787,4.328a5.917,5.917,0,0,0,1.983,4.5q1.768,1.785,3.551,3.553c4.3,4.289,8.556,8.622,12.917,12.847,2.7,2.617,6.212,2.488,8.909-.1.345-.332.312-.536,0-.848q-2.376-2.343-4.719-4.717a.587.587,0,0,0-.892-.081,3.712,3.712,0,0,1-5.038-.485q-4.336-4.305-8.641-8.642a3.752,3.752,0,0,1-.5-5.043c.236-.357.255-.572-.065-.886q-2.355-2.309-4.665-4.665c-.391-.4-.632-.3-.976.041A5.908,5.908,0,0,0-66.007-653.84Zm25.559,11.787c-.276.24-.575.541-.914.784-.443.317-.417.564-.036.935,1.392,1.356,2.745,2.752,4.133,4.112,1.177,1.155.722,1.124,2.054.027.353-.29.363-.515.031-.842-1.6-1.574-3.176-3.167-4.764-4.751A.632.632,0,0,0-40.449-642.053Zm-20.085-19.8a3.357,3.357,0,0,0-1.046.981c-.236.322.148.479.319.653,1.527,1.544,3.081,3.062,4.594,4.619.475.49.727.169,1.018-.153s.787-.541.242-1.077c-1.6-1.573-3.182-3.172-4.773-4.758A3.134,3.134,0,0,0-60.534-661.853Zm26.826,8.355q1.479,1.472,2.959,2.943c.193.192.4.332.639.088,1.02-1.03,2.035-2.065,3.172-3.22a14.43,14.43,0,0,1-3.4.479C-31.467-653.2-32.56-653.391-33.708-653.5ZM-16.84-662.6c0-.225.005-.45,0-.674,0-.149-.027-.365-.226-.291-.423.159-.978.134-1.16.69-.171.522-.309,1.054-.486,1.573-.128.375,0,.481.371.5C-17.292-660.739-16.839-661.268-16.84-662.6Zm-1.065-3.709a2.133,2.133,0,0,0,0-3.674Zm-24.994.069c0-1.176,0-2.188,0-3.2,0-.141.047-.336-.121-.4-.206-.073-.3.134-.406.258A2.371,2.371,0,0,0-42.9-666.245Z" transform="translate(68.708 705.328)" fill="#fff"/>
    <path id="Path_48" data-name="Path 48" d="M204.063-752.59a4.136,4.136,0,0,1,2.884,4.406c-.044,2.925-.006,5.852-.013,8.778-.006,2.658-1.607,4.361-4.247,4.222a8.413,8.413,0,0,0-5.446,1.566c-2.849,1.942-5.83,3.689-8.762,5.51-.2.122-.4.412-.65.229-.188-.14-.035-.429,0-.639q.472-2.846.976-5.686c.166-.944.175-.943-.808-.944-.75,0-1.5.015-2.251-.006a3.788,3.788,0,0,1-3.776-3.784c-.027-3.326-.033-6.652,0-9.978a3.917,3.917,0,0,1,2.732-3.674Zm-12.757,19.549c.331-.182.528-.278.713-.393,1.231-.766,2.526-1.448,3.674-2.323a9.3,9.3,0,0,1,7.023-2.055c1.1.132,1.5-.356,1.506-1.452q.015-4.649,0-9.3c0-1.1-.354-1.442-1.439-1.443q-8.324-.006-16.647,0c-1.16,0-1.527.364-1.53,1.522q-.01,4.574,0,9.149c0,1.108.438,1.541,1.545,1.547,1.55.008,3.1,0,4.649,0,1.331,0,1.322,0,1.085,1.315C191.686-735.376,191.513-734.277,191.306-733.041Z" transform="translate(-130.091 752.59)" fill="#fff"/>
    <path id="Path_49" data-name="Path 49" d="M-68.708-710.921c.55-.345,1.113-.67,1.644-1.042.429-.3.694-.239.952.22.477.849.992,1.678,1.5,2.509.111.182.159.426.456.514.218-.74.4-1.487.656-2.208,4.749-13.448,14.138-21.458,28.2-23.888a32.552,32.552,0,0,1,14.316.907c.992.274.991.276.677,1.275-.474,1.511-.474,1.511-1.97,1.118a32.123,32.123,0,0,0-38.951,22.192,1.646,1.646,0,0,0-.112.907c.847-.508,1.663-.971,2.45-1.479.452-.292.715-.258,1.017.225,1.025,1.64,1.043,1.63-.591,2.612-1.714,1.03-3.441,2.039-5.136,3.1-.545.34-.814.225-1.119-.294-1.163-1.984-2.357-3.949-3.545-5.917-.128-.211-.291-.4-.438-.6Z" transform="translate(68.708 738.83)" fill="#fff"/>
    <path id="Path_50" data-name="Path 50" d="M243.537-635.458c-.6,1-1.169,1.908-1.7,2.837-.256.45-.5.506-.954.238-1.689-1-1.7-.982-.7-2.638,1.017-1.693,2.046-3.378,3.038-5.085.3-.517.567-.641,1.114-.3q2.932,1.816,5.915,3.549c.6.35.743.65.344,1.281-.926,1.465-.9,1.484-2.39.592l-1.954-1.164c.3,1.214.6,2.231.811,3.263a34.5,34.5,0,0,1-6.305,28.64c-.633.862-.651.849-1.469.2-1.231-.979-1.223-.974-.3-2.243a32.108,32.108,0,0,0,6.184-17.023,32.694,32.694,0,0,0-1.1-10.677c-.1-.386-.229-.766-.35-1.147A2.363,2.363,0,0,0,243.537-635.458Z" transform="translate(-174.806 663.768)" fill="#fff"/>
    <path id="Path_51" data-name="Path 51" d="M213.445-726.3c-2.2,0-4.4-.02-6.594.012-.689.01-.99-.173-.968-.922.06-2.008-.2-1.713,1.713-1.72,4.122-.015,8.243-.006,12.365,0,.986,0,1,.012,1,1.009,0,1.832.126,1.617-1.6,1.623C217.392-726.295,215.418-726.3,213.445-726.3Z" transform="translate(-149.071 733.836)" fill="#fff"/>
    <path id="Path_52" data-name="Path 52" d="M210.911-702.393c-1.4,0-2.8-.016-4.194.007-.563.009-.815-.173-.8-.773.041-2.218-.229-1.847,1.786-1.864,2.446-.021,4.893.019,7.338-.02.732-.011,1.029.177,1.009.958-.051,1.945.124,1.674-1.691,1.691C213.208-702.383,212.059-702.392,210.911-702.393Z" transform="translate(-149.096 714.881)" fill="#fff"/>
    <path id="Path_53" data-name="Path 53" d="M266.875-704.987c.2,0,.4,0,.6,0a.675.675,0,0,1,.3.019c.822.463.295,1.241.412,1.869.066.35-.005.728-.508.735-.549.008-1.1,0-1.646,0a.168.168,0,0,1-.074-.008c-.89-.462-.331-1.279-.452-1.925-.079-.419.108-.732.625-.693C266.375-704.971,266.625-704.987,266.875-704.987Z" transform="translate(-196.306 714.841)" fill="#fff"/>
  </g>
</svg>
