<svg xmlns="http://www.w3.org/2000/svg" width="392.719" height="980.391" viewBox="0 0 392.719 980.391">
  <g id="Group_107" data-name="Group 107" transform="translate(0 0)" opacity="0.14" style="isolation: isolate">
    <path id="Path_22" data-name="Path 22" d="M1884.869,875.692V1029.2l-.227.132-33.223-19.605c-1.308-.786-2.587-1.592-3.866-2.388q-1.321-.839-2.644-1.649c-5.344-3.23-10.66-6.472-15.891-9.808-2.644-1.705-5.212-3.42-7.79-5.136l-1.809-1.2c-4.568-3.022-9.126-6.093-13.627-9.239-2.776-1.924-5.573-3.913-8.358-5.912q-8.073-5.786-15.957-11.789l-1.82-1.374c-1.127-.853-2.255-1.706-3.364-2.568-14.327-11.087-28.048-22.515-40.775-33.943-1.279-1.146-2.539-2.331-3.8-3.505l-1.829-1.706c-13.805-12.66-27.252-25.984-39.95-39.562l-.446-.484c-7.656-8.2-15.275-16.753-22.657-25.423l-1.7-2.037c-6.576-7.818-12.963-15.73-19.037-23.576l-.863-1.1c-.682-.862-1.365-1.734-2.037-2.616-6.454-8.443-12.765-17.066-18.715-25.585l-2.956-4.311c-5.1-7.42-10.139-15.057-15.01-22.733l-3.488-5.467c-5.467-8.775-10.774-17.7-15.816-26.589l-2.8-5.117c-4.217-7.572-8.424-15.493-12.5-23.51l-.749-1.459c-.786-1.526-1.573-3.061-2.341-4.6-4.89-9.836-9.229-19.038-13.285-28.125l-1.943-4.51c-3.657-8.348-7.258-17.019-10.689-25.737l-5.515-14.234,6.083-6.434,97.744-97.753,6.435,21.7q1.7,5.756,3.525,11.466c.644,2.008,1.327,4.036,2.009,6.083l.919,2.719c1.469,4.35,2.881,8.538,4.388,12.689,1.033,2.862,2.113,5.685,3.183,8.519,1.5,3.961,2.9,7.581,4.34,11.2,1.184,2.928,2.389,5.884,3.629,8.84,1.554,3.715,3.184,7.42,4.814,11.115l1.392,3.156c.73,1.639,1.449,3.288,2.2,4.918,2.748,5.932,5.572,11.873,8.528,17.758.607,1.222,1.232,2.416,1.867,3.61l1.374,2.635c2.141,4.15,4.3,8.282,6.538,12.394,1.355,2.482,2.748,4.946,4.159,7.419q3.184,5.658,6.463,11.211c1.412,2.378,2.815,4.747,4.255,7.1,2.53,4.141,5.108,8.216,7.723,12.271l1.45,2.274c.673,1.062,1.355,2.123,2.046,3.165,3.763,5.723,7.714,11.513,11.76,17.218l1.174,1.6c6.9,9.657,14.376,19.474,22.231,29.168.739.928,1.5,1.828,2.255,2.738l1.241,1.488c7.467,9.04,15.076,17.729,22.619,25.85q1.933,2.09,3.914,4.169c6.861,7.268,13.807,14.271,20.649,20.828,1.165,1.128,2.33,2.218,3.5,3.308l.72.673c8.32,7.817,15.863,14.573,23.1,20.676l1.81,1.507c7.079,5.97,14.45,11.892,21.908,17.587l2.416,1.885c3.5,2.654,7.117,5.307,10.927,8.027q5.685,4.064,11.967,8.329c.076-.047.142-.1.218-.152" transform="translate(-1492.16 -48.944)" fill="#ced8e2"/>
    <path id="Path_21" data-name="Path 21" d="M1620,358.221v-.032c-.362-4.907-.647-9.841-.884-14.806l-.089-1.752c-.09-1.672-.174-3.35-.237-5.034-.284-7.858-.426-14.9-.426-21.534V131.238h261.946V.467H1487.588l.856,348.839a727.481,727.481,0,0,0,10.368,92.124l.436,2.388q1.373,7.606,2.9,15.175l4.986,24.574,113.773-113.783Z" transform="translate(-1487.588 -0.467)" fill="#ced8e2"/>
  </g>
</svg>
