<svg xmlns="http://www.w3.org/2000/svg" width="32.828" height="32.828" viewBox="0 0 32.828 32.828">
  <path id="Icon_awesome-whatsapp" data-name="Icon awesome-whatsapp" d="M27.911,7.02a16.273,16.273,0,0,0-25.6,19.631L0,35.078l8.625-2.264A16.218,16.218,0,0,0,16.4,34.792h.007A16.424,16.424,0,0,0,32.828,18.525,16.332,16.332,0,0,0,27.911,7.02Zm-11.5,25.031a13.5,13.5,0,0,1-6.888-1.883l-.491-.293L3.913,31.216l1.363-4.99-.322-.513A13.547,13.547,0,1,1,30.08,18.525,13.672,13.672,0,0,1,16.407,32.052Zm7.416-10.127c-.4-.205-2.4-1.187-2.777-1.319s-.645-.205-.916.205-1.048,1.319-1.29,1.6-.476.308-.879.1c-2.389-1.194-3.957-2.132-5.532-4.836-.418-.718.418-.667,1.194-2.22a.753.753,0,0,0-.037-.711c-.1-.205-.916-2.206-1.253-3.019-.33-.791-.667-.681-.916-.7s-.506-.015-.777-.015a1.506,1.506,0,0,0-1.085.506,4.568,4.568,0,0,0-1.422,3.393A7.963,7.963,0,0,0,9.79,19.118c.205.271,2.865,4.375,6.947,6.141,2.579,1.114,3.591,1.209,4.88,1.019a4.163,4.163,0,0,0,2.741-1.935,3.4,3.4,0,0,0,.234-1.935C24.5,22.225,24.225,22.123,23.822,21.925Z" transform="translate(0 -2.25)" fill="#fff"/>
</svg>
